<svg width="180" height="180" viewBox="0 0 180 180" fill="none" xmlns="http://www.w3.org/2000/svg">
<path d="M72.3471 169.32L10.6797 107.653V72.3514L72.3471 10.684H107.649L169.316 72.3514V107.653L107.649 169.32H72.3471V169.32Z" fill="#121214" stroke="#42D3FF" stroke-width="2" stroke-miterlimit="10"/>
<path d="M178 90L90 2L2 90L90 178L178 90Z" fill="#121214" stroke="#42D3FF" stroke-width="2" stroke-miterlimit="10"/>
<path d="M26.5696 114.574H153.476" stroke="#42D3FF" stroke-width="2" stroke-miterlimit="10"/>
<path d="M101.61 49.3867V59.5344C100.602 60.0406 96.3092 62.0574 89.9958 62.0574C83.6824 62.0574 79.3937 60.0884 78.3813 59.5344V49.3867C78.3813 42.0131 86.6119 24.8465 89.9958 24.8465C93.3797 24.8465 101.61 42.0131 101.61 49.3867Z" fill="white"/>
<path d="M97.1701 42.5203C96.7157 42.1656 94.6949 40.6031 89.9997 40.6031C85.3045 40.6031 83.2838 42.1177 82.8294 42.5203C82.7776 42.5721 82.7297 42.6199 82.7297 42.7236V44.0349C82.7297 44.2381 82.9808 44.3896 83.1323 44.2381C83.9414 43.6841 86.01 42.6239 89.9479 42.6239C93.8858 42.6239 95.9544 43.6841 96.7635 44.2381C96.9668 44.3378 97.1661 44.2381 97.1661 44.0349V42.7236C97.2657 42.6717 97.2657 42.5721 97.1661 42.5203H97.1701Z" fill="#42D3FF"/>
<path d="M101.61 86.7043C101.61 86.7043 115.596 97.8643 116.453 113.819C116.505 114.728 115.644 115.386 114.787 115.131C110.698 113.867 107.868 108.466 101.61 108.466V86.7043V86.7043Z" fill="url(#paint0_linear_1102_8697)"/>
<path d="M78.4364 86.7043C78.4364 86.7043 64.4505 97.8643 63.5935 113.819C63.5417 114.728 64.4026 115.386 65.2596 115.131C69.3489 113.867 72.1788 108.466 78.4364 108.466V86.7043V86.7043Z" fill="url(#paint1_linear_1102_8697)"/>
<path d="M101.615 66.1008V108.465H78.3899V66.1008C79.3983 66.607 83.6909 68.6237 90.0043 68.6237C96.3178 68.6237 100.606 66.6548 101.619 66.1008H101.615Z" fill="white"/>
<path d="M90.0025 86.7043C88.739 86.7043 87.1726 100.033 87.1726 114.373C87.1726 116.645 88.5875 118.865 90.0025 118.865C91.4174 118.865 92.8284 116.593 92.8284 114.373C92.8802 100.033 91.3138 86.7043 90.0025 86.7043Z" fill="url(#paint2_linear_1102_8697)"/>
<path d="M90.0043 108.464H78.3899L80.9129 113.864C80.9129 113.864 87.8321 114.57 90.0004 114.57C92.1686 114.57 99.0878 113.864 99.0878 113.864L101.611 108.464H89.9964H90.0043Z" fill="url(#paint3_linear_1102_8697)"/>
<path d="M90.6058 21.0128V17.9318H91.9171V14.3965H58.2375V106.547H60.5094V98.9739L65.6072 93.8762L69.1425 97.4115L69.2422 97.5112L70.5535 95.5422L67.2214 92.2101L70.5535 88.878V92.2101H72.8254V17.884H89.3383V20.965C88.1784 21.2161 87.3693 22.2285 87.3693 23.488C87.3693 24.3449 87.8237 25.154 88.4814 25.6084C88.6328 25.708 88.7843 25.8116 88.9357 25.8595V27.7288H90.9047V25.8595C91.0561 25.8077 91.2594 25.708 91.4109 25.6084C92.0685 25.154 92.5229 24.3967 92.5229 23.488C92.5747 22.2763 91.7138 21.2679 90.6058 21.0128V21.0128ZM70.5615 17.884L65.663 22.7825L60.7645 17.884H70.5615V17.884ZM70.6133 21.1164V27.7328L67.2812 24.4007L70.6133 21.1204V21.1164ZM60.5652 20.965L64.0488 24.4485L60.5652 27.9321V20.965ZM60.5652 31.1645L65.667 26.0667L70.6133 31.013V31.4674L65.667 36.4137L60.5652 31.3159V31.1645ZM70.6133 34.648V41.2644L67.2812 37.9323L70.6133 34.652V34.648ZM60.5652 34.4966L64.0488 37.9801L60.5652 41.4637V34.4966ZM60.5652 48.0282L64.0488 51.5117L60.5652 54.9952V48.0282ZM60.5652 61.6116L64.0488 65.0951L60.5652 68.5787V61.6116ZM60.5652 75.1432L64.0488 78.6267L60.5652 82.1102V75.1432ZM60.5652 95.6937V88.7266L64.0488 92.2101L60.5652 95.6937ZM70.6133 85.6456L65.667 90.5959L60.5652 85.4981V85.3985L65.667 80.3007L70.6133 85.247V85.6496V85.6456ZM70.6133 81.9588L67.2812 78.6267L70.6133 75.2946V81.9588ZM70.6133 72.0622L65.667 77.0085L60.5652 71.9107V71.8111L65.667 66.7133L70.6133 71.6636V72.0662V72.0622ZM70.6133 68.4272L67.2812 65.0951L70.6133 61.763V68.4272ZM70.6133 58.5306L65.667 63.4769L60.5652 58.3791V58.2795L65.667 53.1817L70.6133 58.128V58.5306ZM70.6133 54.8438L67.2812 51.5117L70.6133 48.1796V54.8438V54.8438ZM70.6133 44.5446V44.999L65.667 49.9453L62.7893 47.0676L60.5692 44.8475V44.7479L65.671 39.6501L70.6173 44.5486L70.6133 44.5446Z" fill="url(#paint4_linear_1102_8697)"/>
<path d="M80.9466 149.643V149.025L80.1494 149.488L80.6795 150.412L81.4807 149.95L80.9466 149.643V149.643Z" fill="#42D3FF"/>
<path d="M81.4807 149.95L80.6795 150.412L80.1494 149.488L80.9466 149.025V149.643L81.4807 149.95Z" fill="#42D3FF"/>
<path d="M99.8357 138.426L90.2579 132.898C90.0945 132.802 89.8913 132.802 89.7239 132.898L80.1501 138.426C79.9827 138.522 79.8831 138.697 79.8831 138.888V149.949C79.8831 150.14 79.9827 150.315 80.1501 150.411L89.7239 155.939C89.8076 155.987 89.8992 156.011 89.9909 156.011C90.0826 156.011 90.1782 155.987 90.2579 155.939L99.8357 150.411C100.003 150.315 100.103 150.14 100.103 149.949V138.888C100.103 138.697 100.003 138.522 99.8357 138.426V138.426ZM81.4813 149.949L89.9909 145.034L98.5005 149.949L89.9909 154.863L81.4813 149.949L80.6802 150.411L80.1501 149.486L80.9472 149.024V139.199L89.9909 133.978L98.5005 138.888L80.9472 149.024V149.642L81.4813 149.949V149.949Z" fill="#42D3FF"/>
<defs>
<linearGradient id="paint0_linear_1102_8697" x1="109.036" y1="88.7211" x2="109.036" y2="116.534" gradientUnits="userSpaceOnUse">
<stop stop-color="#42D3FF"/>
<stop offset="1" stop-color="#02799D"/>
</linearGradient>
<linearGradient id="paint1_linear_1102_8697" x1="71.011" y1="88.7211" x2="71.011" y2="116.534" gradientUnits="userSpaceOnUse">
<stop stop-color="#42D3FF"/>
<stop offset="1" stop-color="#02799D"/>
</linearGradient>
<linearGradient id="paint2_linear_1102_8697" x1="90.0025" y1="91.1165" x2="90.0025" y2="116.557" gradientUnits="userSpaceOnUse">
<stop stop-color="#42D3FF"/>
<stop offset="1" stop-color="#02799D"/>
</linearGradient>
<linearGradient id="paint3_linear_1102_8697" x1="90.0043" y1="91.1137" x2="90.0043" y2="116.555" gradientUnits="userSpaceOnUse">
<stop stop-color="#42D3FF"/>
<stop offset="1" stop-color="#02799D"/>
</linearGradient>
<linearGradient id="paint4_linear_1102_8697" x1="75.3802" y1="49.7062" x2="75.3802" y2="106.212" gradientUnits="userSpaceOnUse">
<stop stop-color="#42D3FF"/>
<stop offset="0.68" stop-color="#42D3FF" stop-opacity="0"/>
</linearGradient>
</defs>
</svg>
